HIERARCHY
ROOT Hips
{
	OFFSET -0.001795 -0.223333 0.028219
	CHANNELS 6 Xposition Yposition Zposition Zrotation Yrotation Xrotation 
	JOINT LeftUpLeg
	{
		OFFSET 0.069520 -0.091406 -0.006815
		CHANNELS 3 Zrotation Yrotation Xrotation
		JOINT LeftLeg
		{
			OFFSET 0.034277 -0.375199 -0.004496
			CHANNELS 3 Zrotation Yrotation Xrotation
			JOINT LeftFoot
			{
				OFFSET -0.013596 -0.397961 -0.043693
				CHANNELS 3 Zrotation Yrotation Xrotation
				JOINT LeftToe
				{
					OFFSET 0.026358 -0.055791 0.119288
					CHANNELS 3 Zrotation Yrotation Xrotation
					End Site
					{
						OFFSET 0.000000 0.000000 0.000000
					}
				}
			}
		}
	}
	JOINT RightUpLeg
	{
		OFFSET -0.067670 -0.090522 -0.004320
		CHANNELS 3 Zrotation Yrotation Xrotation
		JOINT RightLeg
		{
			OFFSET -0.038290 -0.382569 -0.008850
			CHANNELS 3 Zrotation Yrotation Xrotation
			JOINT RightFoot
			{
				OFFSET 0.015774 -0.398415 -0.042312
				CHANNELS 3 Zrotation Yrotation Xrotation
				JOINT RightToe
				{
					OFFSET -0.025372 -0.048144 0.123348
					CHANNELS 3 Zrotation Yrotation Xrotation
					End Site
					{
						OFFSET 0.000000 0.000000 0.000000
					}
				}
			}
		}
	}
	JOINT Spine
	{
		OFFSET -0.002533 0.108963 -0.026696
		CHANNELS 3 Zrotation Yrotation Xrotation
		JOINT Spine1
		{
			OFFSET 0.005487 0.135180 0.001092
			CHANNELS 3 Zrotation Yrotation Xrotation
			JOINT Spine2
			{
				OFFSET 0.001457 0.052922 0.025425
				CHANNELS 3 Zrotation Yrotation Xrotation
				JOINT Neck
				{
					OFFSET -0.002778 0.213870 -0.042857
					CHANNELS 3 Zrotation Yrotation Xrotation
					JOINT Head
					{
						OFFSET 0.005152 0.064970 0.051349
						CHANNELS 3 Zrotation Yrotation Xrotation
						End Site
						{
							OFFSET 0.000000 0.000000 0.000000
						}
					}
				}
				JOINT LeftShoulder
				{
					OFFSET 0.078845 0.121749 -0.034090
					CHANNELS 3 Zrotation Yrotation Xrotation
					JOINT LeftArm
					{
						OFFSET 0.090977 0.030469 -0.008868
						CHANNELS 3 Zrotation Yrotation Xrotation
						JOINT LeftForeArm
						{
							OFFSET 0.259612 -0.012772 -0.027456
							CHANNELS 3 Zrotation Yrotation Xrotation
							JOINT LeftHand
							{
								OFFSET 0.249234 0.008986 -0.001171
								CHANNELS 3 Zrotation Yrotation Xrotation
								End Site
								{
									OFFSET 0.000000 0.000000 0.000000
								}
							}
						}
					}
				}
				JOINT RightShoulder
				{
					OFFSET -0.081759 0.118833 -0.038615
					CHANNELS 3 Zrotation Yrotation Xrotation
					JOINT RightArm
					{
						OFFSET -0.096012 0.032551 -0.009143
						CHANNELS 3 Zrotation Yrotation Xrotation
						JOINT RightForeArm
						{
							OFFSET -0.253742 -0.013329 -0.021401
							CHANNELS 3 Zrotation Yrotation Xrotation
							JOINT RightHand
							{
								OFFSET -0.255298 0.007772 -0.005559
								CHANNELS 3 Zrotation Yrotation Xrotation
								End Site
								{
									OFFSET 0.000000 0.000000 0.000000
								}
							}
						}
					}
				}
			}
		}
	}
}
MOTION
Frames: 13
Frame Time: 0.050000
0.043470 0.947675 -0.027810 2.314945 22.661243 9.836196 8.204659 -0.873755 -8.431728 -2.740294 0.093237 2.514356 11.669637 23.729022 18.110535 0.000000 0.000000 0.000000 -7.947718 -0.694758 -25.117266 -0.446483 0.063825 12.885054 3.905687 5.406751 11.760468 0.000000 0.000000 0.000000 15.452707 -9.265649 31.558346 -1.884943 1.394092 -20.020869 5.672099 3.100883 23.763964 18.487205 -9.775786 -17.348236 0.000000 0.000000 0.000000 7.314304 -16.178619 5.531678 -33.750264 -10.788899 -2.839043 -48.381420 -67.963660 31.684203 0.000000 0.000000 0.000000 18.043251 15.607498 11.047139 47.981845 54.140731 17.160502 6.601312 53.686424 8.153863 0.000000 0.000000 0.000000 
0.043964 0.947746 -0.028047 2.329431 22.825208 9.876724 8.217502 -0.884624 -8.607986 -2.830585 0.097306 2.556541 11.527148 23.577602 18.030578 0.000000 0.000000 0.000000 -8.027577 -0.730265 -25.116826 -0.416643 0.047044 13.038330 3.952723 5.479470 11.851069 0.000000 0.000000 0.000000 15.560719 -9.199445 31.167801 -1.922087 1.407080 -19.928059 5.654600 3.040311 23.814486 18.590024 -9.851100 -17.323839 0.000000 0.000000 0.000000 7.152812 -16.172933 5.530497 -34.100641 -10.832814 -2.860980 -48.152237 -67.605995 31.306114 0.000000 0.000000 0.000000 18.049055 15.205310 10.846892 48.864272 53.983132 17.521262 6.388891 53.225342 8.002192 0.000000 0.000000 0.000000 
0.044335 0.947843 -0.028304 2.429295 22.878920 9.938864 8.194720 -0.892576 -8.775718 -2.956453 0.102894 2.676402 11.443914 23.483844 17.885162 0.000000 0.000000 0.000000 -8.017842 -0.729451 -25.070817 -0.454549 0.052336 13.125520 3.925477 5.441761 11.830123 0.000000 0.000000 0.000000 15.590317 -9.109555 30.854956 -1.978300 1.423556 -19.932609 5.554093 2.814425 23.974095 18.692865 -10.070909 -17.022882 0.000000 0.000000 0.000000 6.454395 -16.327963 5.544235 -34.047581 -10.605301 -2.894346 -47.041414 -67.120232 30.341883 0.000000 0.000000 0.000000 18.462328 14.971321 10.793652 49.025894 53.562229 17.276707 6.939710 52.946461 8.220029 0.000000 0.000000 0.000000 
0.044596 0.947812 -0.028601 2.550072 22.868774 10.192031 8.218231 -0.911321 -9.105264 -3.139917 0.111282 2.877909 11.427995 23.488802 17.944999 0.000000 0.000000 0.000000 -8.142626 -0.779987 -25.322637 -0.272518 0.001030 13.280675 3.840039 5.265171 11.872862 0.000000 0.000000 0.000000 15.527076 -8.951376 30.434296 -1.922081 1.407947 -19.804741 5.398971 2.642762 24.083834 18.698520 -10.064279 -17.106650 0.000000 0.000000 0.000000 5.918650 -16.358188 5.535471 -34.135815 -10.357275 -2.944473 -46.603847 -66.803501 29.926895 0.000000 0.000000 0.000000 18.950758 14.687595 10.762229 49.358755 53.514988 17.320467 7.606292 52.324675 8.449853 0.000000 0.000000 0.000000 
0.044734 0.947588 -0.028898 2.635248 22.825714 10.322095 8.230434 -0.914387 -9.138407 -3.249108 0.120144 2.855188 11.290141 23.328266 17.857931 0.000000 0.000000 0.000000 -8.176445 -0.791976 -25.425630 -0.265364 -0.004186 13.432088 3.818071 5.296689 11.618145 0.000000 0.000000 0.000000 15.510220 -8.890274 30.273872 -1.981815 1.421767 -19.815386 5.295627 2.455268 24.241303 18.762116 -10.152854 -17.087448 0.000000 0.000000 0.000000 5.464581 -16.434776 5.540264 -34.289123 -9.837828 -3.071785 -46.598616 -66.603532 29.912297 0.000000 0.000000 0.000000 19.306742 14.547467 10.740679 49.595063 53.189930 17.176078 8.717201 52.069405 8.943657 0.000000 0.000000 0.000000 
0.044839 0.947402 -0.029184 2.721501 22.808929 10.606301 8.264579 -0.928348 -9.334165 -3.360991 0.125165 2.992134 11.339472 23.402396 17.977511 0.000000 0.000000 0.000000 -8.286710 -0.845744 -25.788149 -0.092012 -0.053987 13.618617 3.802975 5.260584 11.614665 0.000000 0.000000 0.000000 15.653477 -8.826728 29.878604 -2.150423 1.461289 -19.757255 5.197997 2.119938 24.385129 18.771145 -10.176174 -17.172440 0.000000 0.000000 0.000000 4.972290 -16.405335 5.518499 -34.307761 -9.387197 -3.169500 -46.572557 -66.617624 30.051356 0.000000 0.000000 0.000000 19.803334 14.409470 10.724118 49.496241 53.238058 17.049496 9.584016 51.935833 9.335726 0.000000 0.000000 0.000000 
0.044990 0.947100 -0.029366 2.763632 22.632587 10.881211 8.184926 -0.939234 -9.584799 -3.282938 0.118786 3.081264 11.518192 23.619068 18.051124 0.000000 0.000000 0.000000 -8.381587 -0.875768 -26.084243 -0.048029 -0.063761 13.747184 3.786358 5.262657 11.450676 0.000000 0.000000 0.000000 15.672408 -8.707313 29.516591 -2.135656 1.453033 -19.659111 4.977162 1.969701 24.495197 18.775702 -10.190816 -17.207975 0.000000 0.000000 0.000000 4.748975 -16.255889 5.471295 -34.416921 -9.120186 -3.240165 -47.096088 -67.048310 30.751958 0.000000 0.000000 0.000000 20.283409 14.272609 10.733616 49.878703 53.251953 17.165668 10.716131 52.169937 9.984988 0.000000 0.000000 0.000000 
0.045290 0.947139 -0.029429 2.778648 22.332846 11.049811 8.000250 -0.933229 -9.594630 -3.192245 0.112800 3.150431 11.578477 23.669680 17.888706 0.000000 0.000000 0.000000 -8.257705 -0.817612 -26.179776 -0.207920 -0.009146 13.658592 3.777381 5.346258 11.065058 0.000000 0.000000 0.000000 15.811690 -8.613792 29.145827 -2.336064 1.495265 -19.650902 4.868443 1.643348 24.575409 18.683905 -10.188583 -17.174311 0.000000 0.000000 0.000000 4.597094 -16.185775 5.445915 -34.687203 -8.755702 -3.348376 -47.962916 -67.286982 31.706246 0.000000 0.000000 0.000000 20.691792 14.148428 10.653452 50.540154 53.000803 17.276237 12.347244 52.387135 10.874069 0.000000 0.000000 0.000000 
0.045689 0.947285 -0.029355 2.855129 22.136120 11.256989 7.933818 -0.936734 -9.696439 -3.301133 0.121866 3.188453 11.925676 24.081363 18.191357 0.000000 0.000000 0.000000 -8.323719 -0.820879 -26.266116 -0.229229 0.005665 13.551377 3.798722 5.346599 11.151138 0.000000 0.000000 0.000000 15.790402 -8.504054 28.876756 -2.349903 1.493108 -19.693951 4.774451 1.437630 24.537716 18.471212 -10.031368 -17.252262 0.000000 0.000000 0.000000 4.699588 -16.059849 5.412017 -34.766294 -8.624303 -3.383324 -48.396170 -67.588130 32.299001 0.000000 0.000000 0.000000 21.128902 13.941247 10.572523 50.750874 52.576480 17.075212 13.682245 53.028416 11.759450 0.000000 0.000000 0.000000 
0.046183 0.947689 -0.029241 2.975265 21.894815 11.302820 7.726766 -0.921456 -9.540484 -3.213449 0.118142 3.147870 12.159851 24.343844 18.426063 0.000000 0.000000 0.000000 -8.406675 -0.828384 -26.339535 -0.237899 0.013662 13.598712 3.997584 5.685521 11.183592 0.000000 0.000000 0.000000 15.713770 -8.428193 28.821894 -2.318414 1.479450 -19.822644 4.675394 1.279445 24.561204 18.122570 -9.798026 -17.280556 0.000000 0.000000 0.000000 5.173166 -16.035757 5.407994 -35.048611 -8.771296 -3.392352 -48.212062 -67.637558 32.300820 0.000000 0.000000 0.000000 21.369032 13.905281 10.545661 50.898780 52.371395 16.990658 14.565875 53.456619 12.347754 0.000000 0.000000 0.000000 
0.046631 0.948108 -0.029091 3.017451 21.880128 11.263365 7.651051 -0.912847 -9.417012 -3.255903 0.120517 3.190053 12.325726 24.523786 18.506381 0.000000 0.000000 0.000000 -8.426678 -0.845758 -26.476386 -0.279427 0.016558 13.903793 4.125185 5.830072 11.438041 0.000000 0.000000 0.000000 15.760499 -8.434803 28.799785 -2.300092 1.474320 -19.883472 4.672496 1.072119 24.455750 17.821166 -9.614230 -17.236466 0.000000 0.000000 0.000000 5.575526 -16.062531 5.417707 -35.213528 -8.846698 -3.393801 -47.776156 -67.814473 32.173353 0.000000 0.000000 0.000000 21.532502 13.961880 10.559328 50.496034 52.249596 16.699326 14.556860 53.860405 12.448287 0.000000 0.000000 0.000000 
0.047007 0.948323 -0.028935 3.075832 21.939450 11.199381 7.573640 -0.904262 -9.283047 -3.161013 0.112255 3.204509 12.413246 24.628871 18.784023 0.000000 0.000000 0.000000 -8.540842 -0.900386 -26.628303 -0.271924 0.003211 14.226688 4.419421 6.289715 11.678622 0.000000 0.000000 0.000000 15.863048 -8.498831 28.865197 -2.316014 1.478604 -19.993162 4.680784 1.034479 24.279295 17.690929 -9.613195 -16.936280 0.000000 0.000000 0.000000 5.972935 -16.078153 5.426366 -35.243434 -9.234636 -3.306316 -47.157167 -67.621966 31.619352 0.000000 0.000000 0.000000 21.654782 13.954882 10.578978 50.626476 52.348535 16.816708 13.917713 53.783736 12.099252 0.000000 0.000000 0.000000 
0.047325 0.948322 -0.028855 3.118501 22.152656 11.018623 7.638049 -0.892696 -9.007033 -3.268603 0.118634 3.212136 12.461234 24.666029 18.746329 0.000000 0.000000 0.000000 -8.528350 -0.919222 -26.597737 -0.299179 -0.010848 14.671679 4.516449 6.527299 11.526355 0.000000 0.000000 0.000000 15.988620 -8.589566 28.951106 -2.270781 1.471761 -20.068664 4.725220 1.046418 24.256157 17.889407 -9.753388 -16.928536 0.000000 0.000000 0.000000 6.381886 -16.195204 5.463115 -35.247086 -9.557573 -3.245554 -46.186530 -67.736164 30.936363 0.000000 0.000000 0.000000 21.625949 13.978212 10.615666 50.266586 52.759476 16.876234 12.661992 53.544382 11.368310 0.000000 0.000000 0.000000 
